<svg width="50" height="48" viewBox="0 0 50 48" fill="none" xmlns="http://www.w3.org/2000/svg" xmlns:xlink="http://www.w3.org/1999/xlink">
<path d="M17,36C17,37.105 17.895,38 19,38C20.105,38 21,37.105 21,36L17,36ZM19,10L18.671,8.027C17.707,8.188 17,9.022 17,10L19,10ZM43,6L45,6C45,5.412 44.741,4.854 44.293,4.474C43.844,4.094 43.251,3.931 42.671,4.027L43,6ZM41,32C41,33.105 41.895,34 43,34C44.105,34 45,33.105 45,32L41,32ZM21,36L21,10L17,10L17,36L21,36ZM19.329,11.973L43.329,7.973L42.671,4.027L18.671,8.027L19.329,11.973ZM41,6L41,32L45,32L45,6L41,6Z" fill="#000000"/>
<path d="M17,36C17,38.209 15.209,40 13,40L13,44C17.418,44 21,40.418 21,36L17,36ZM13,40C10.791,40 9,38.209 9,36L5,36C5,40.418 8.582,44 13,44L13,40ZM9,36C9,33.791 10.791,32 13,32L13,28C8.582,28 5,31.582 5,36L9,36ZM13,32C15.209,32 17,33.791 17,36L21,36C21,31.582 17.418,28 13,28L13,32Z" fill="#000000"/>
<path d="M41,32C41,34.209 39.209,36 37,36L37,40C41.418,40 45,36.418 45,32L41,32ZM37,36C34.791,36 33,34.209 33,32L29,32C29,36.418 32.582,40 37,40L37,36ZM33,32C33,29.791 34.791,28 37,28L37,24C32.582,24 29,27.582 29,32L33,32ZM37,28C39.209,28 41,29.791 41,32L45,32C45,27.582 41.418,24 37,24L37,28Z" fill="#000000"/>
</svg>
