<svg width="120" height="120" viewBox="0 0 120 120" fill="none" xmlns="http://www.w3.org/2000/svg" xmlns:xlink="http://www.w3.org/1999/xlink">
<path d="M43,90C43,91.105 43.895,92 45,92C46.105,92 47,91.105 47,90L43,90ZM45,25L44.671,23.027C43.707,23.188 43,24.022 43,25L45,25ZM105,15L107,15C107,14.412 106.741,13.854 106.293,13.474C105.844,13.094 105.251,12.931 104.671,13.027L105,15ZM103,80C103,81.105 103.895,82 105,82C106.105,82 107,81.105 107,80L103,80ZM47,90L47,25L43,25L43,90L47,90ZM45.329,26.973L105.329,16.973L104.671,13.027L44.671,23.027L45.329,26.973ZM103,15L103,80L107,80L107,15L103,15Z" fill="#000000"/>
<path d="M43,90C43,97.18 37.18,103 30,103L30,107C39.389,107 47,99.389 47,90L43,90ZM30,103C22.82,103 17,97.18 17,90L13,90C13,99.389 20.611,107 30,107L30,103ZM17,90C17,82.82 22.82,77 30,77L30,73C20.611,73 13,80.611 13,90L17,90ZM30,77C37.18,77 43,82.82 43,90L47,90C47,80.611 39.389,73 30,73L30,77Z" fill="#000000"/>
<path d="M103,80C103,87.18 97.18,93 90,93L90,97C99.389,97 107,89.389 107,80L103,80ZM90,93C82.82,93 77,87.18 77,80L73,80C73,89.389 80.611,97 90,97L90,93ZM77,80C77,72.82 82.82,67 90,67L90,63C80.611,63 73,70.611 73,80L77,80ZM90,67C97.18,67 103,72.82 103,80L107,80C107,70.611 99.389,63 90,63L90,67Z" fill="#000000"/>
</svg>
