<svg width="48" height="48" viewBox="0 0 48 48" fill="none" xmlns="http://www.w3.org/2000/svg" xmlns:xlink="http://www.w3.org/1999/xlink">
<path d="M15,36C15,37.105 15.895,38 17,38C18.105,38 19,37.105 19,36L15,36ZM17,10L16.671,8.027C15.707,8.188 15,9.022 15,10L17,10ZM41,6L43,6C43,5.412 42.741,4.854 42.293,4.474C41.844,4.094 41.251,3.931 40.671,4.027L41,6ZM39,32C39,33.105 39.895,34 41,34C42.105,34 43,33.105 43,32L39,32ZM19,36L19,10L15,10L15,36L19,36ZM17.329,11.973L41.329,7.973L40.671,4.027L16.671,8.027L17.329,11.973ZM39,6L39,32L43,32L43,6L39,6Z" fill="#000000"/>
<path d="M15,36C15,38.209 13.209,40 11,40L11,44C15.418,44 19,40.418 19,36L15,36ZM11,40C8.791,40 7,38.209 7,36L3,36C3,40.418 6.582,44 11,44L11,40ZM7,36C7,33.791 8.791,32 11,32L11,28C6.582,28 3,31.582 3,36L7,36ZM11,32C13.209,32 15,33.791 15,36L19,36C19,31.582 15.418,28 11,28L11,32Z" fill="#000000"/>
<path d="M39,32C39,34.209 37.209,36 35,36L35,40C39.418,40 43,36.418 43,32L39,32ZM35,36C32.791,36 31,34.209 31,32L27,32C27,36.418 30.582,40 35,40L35,36ZM31,32C31,29.791 32.791,28 35,28L35,24C30.582,24 27,27.582 27,32L31,32ZM35,28C37.209,28 39,29.791 39,32L43,32C43,27.582 39.418,24 35,24L35,28Z" fill="#000000"/>
</svg>
