<svg width="48" height="48" viewBox="0 0 48 48" fill="none" xmlns="http://www.w3.org/2000/svg" xmlns:xlink="http://www.w3.org/1999/xlink">
<path d="M25,24C25,25.105 24.105,26 23,26L23,30C26.314,30 29,27.314 29,24L25,24ZM23,26C21.895,26 21,25.105 21,24L17,24C17,27.314 19.686,30 23,30L23,26ZM21,24C21,22.895 21.895,22 23,22L23,18C19.686,18 17,20.686 17,24L21,24ZM23,22C24.105,22 25,22.895 25,24L29,24C29,20.686 26.314,18 23,18L23,22Z" fill="#000000"/>
<path d="M32.893,14.105C32.112,13.324 30.846,13.325 30.065,14.107C29.284,14.888 29.285,16.154 30.067,16.935L32.893,14.105ZM34.999,24.01L32.999,24.01L34.999,24.01ZM30.067,31.085C29.285,31.866 29.284,33.132 30.065,33.913C30.846,34.695 32.112,34.696 32.893,33.915L30.067,31.085ZM13.107,33.895C13.888,34.676 15.154,34.675 15.935,33.893C16.716,33.112 16.715,31.846 15.933,31.065L13.107,33.895ZM11.001,23.99L13.001,23.99L11.001,23.99ZM15.933,16.915C16.715,16.134 16.716,14.868 15.935,14.087C15.154,13.305 13.888,13.304 13.107,14.085L15.933,16.915ZM38.554,8.446C37.773,7.665 36.507,7.665 35.726,8.446C34.945,9.226 34.945,10.493 35.725,11.274L38.554,8.446ZM35.725,36.726C34.945,37.507 34.945,38.773 35.726,39.554C36.507,40.335 37.773,40.335 38.554,39.554L35.725,36.726ZM7.446,39.554C8.227,40.335 9.493,40.335 10.274,39.554C11.055,38.773 11.055,37.507 10.274,36.726L7.446,39.554ZM3.004,24L5.004,24L3.004,24ZM10.274,11.274C11.055,10.493 11.055,9.226 10.274,8.446C9.493,7.665 8.227,7.665 7.446,8.446L10.274,11.274ZM30.067,16.935C30.996,17.864 31.734,18.967 32.237,20.181L35.932,18.649C35.228,16.949 34.195,15.405 32.893,14.105L30.067,16.935ZM32.237,20.181C32.74,21.395 32.999,22.696 32.999,24.01L36.999,24.01C36.999,22.17 36.637,20.348 35.932,18.649L32.237,20.181ZM32.999,24.01C32.999,25.324 32.74,26.625 32.237,27.839L35.932,29.371C36.637,27.672 36.999,25.85 36.999,24.01L32.999,24.01ZM32.237,27.839C31.734,29.053 30.996,30.156 30.067,31.085L32.893,33.915C34.195,32.615 35.228,31.071 35.932,29.371L32.237,27.839ZM15.933,31.065C15.004,30.136 14.266,29.033 13.763,27.819L10.068,29.351C10.772,31.051 11.805,32.595 13.107,33.895L15.933,31.065ZM13.763,27.819C13.26,26.605 13.001,25.304 13.001,23.99L9.001,23.99C9.001,25.83 9.363,27.652 10.068,29.351L13.763,27.819ZM13.001,23.99C13.001,22.676 13.26,21.375 13.763,20.161L10.068,18.629C9.363,20.328 9.001,22.15 9.001,23.99L13.001,23.99ZM13.763,20.161C14.266,18.947 15.004,17.844 15.933,16.915L13.107,14.085C11.805,15.385 10.772,16.929 10.068,18.629L13.763,20.161ZM35.725,11.274C39.1,14.649 40.996,19.227 40.996,24L44.996,24C44.996,18.166 42.679,12.572 38.554,8.446L35.725,11.274ZM40.996,24C40.996,28.773 39.1,33.35 35.725,36.726L38.554,39.554C42.679,35.428 44.996,29.834 44.996,24L40.996,24ZM10.274,36.726C6.9,33.35 5.004,28.773 5.004,24L1.004,24C1.004,29.834 3.321,35.428 7.446,39.554L10.274,36.726ZM5.004,24C5.004,19.227 6.9,14.649 10.274,11.274L7.446,8.446C3.321,12.572 1.004,18.166 1.004,24L5.004,24Z" fill="#000000"/>
</svg>
