<svg width="50" height="48" viewBox="0 0 50 48" fill="none" xmlns="http://www.w3.org/2000/svg" xmlns:xlink="http://www.w3.org/1999/xlink">
<path d="M27,24C27,25.105 26.105,26 25,26L25,30C28.314,30 31,27.314 31,24L27,24ZM25,26C23.895,26 23,25.105 23,24L19,24C19,27.314 21.686,30 25,30L25,26ZM23,24C23,22.895 23.895,22 25,22L25,18C21.686,18 19,20.686 19,24L23,24ZM25,22C26.105,22 27,22.895 27,24L31,24C31,20.686 28.314,18 25,18L25,22Z" fill="#000000"/>
<path d="M34.893,14.105C34.112,13.324 32.846,13.325 32.065,14.107C31.284,14.888 31.285,16.154 32.067,16.935L34.893,14.105ZM36.999,24.01L34.999,24.01L36.999,24.01ZM32.067,31.085C31.285,31.866 31.284,33.132 32.065,33.913C32.846,34.695 34.112,34.696 34.893,33.915L32.067,31.085ZM15.107,33.895C15.888,34.676 17.154,34.675 17.935,33.893C18.716,33.112 18.715,31.846 17.933,31.065L15.107,33.895ZM13.001,23.99L15.001,23.99L13.001,23.99ZM17.933,16.915C18.715,16.134 18.716,14.868 17.935,14.087C17.154,13.305 15.888,13.304 15.107,14.085L17.933,16.915ZM40.554,8.446C39.773,7.665 38.507,7.665 37.726,8.446C36.945,9.226 36.945,10.493 37.725,11.274L40.554,8.446ZM37.725,36.726C36.945,37.507 36.945,38.773 37.726,39.554C38.507,40.335 39.773,40.335 40.554,39.554L37.725,36.726ZM9.446,39.554C10.227,40.335 11.493,40.335 12.274,39.554C13.055,38.773 13.055,37.507 12.274,36.726L9.446,39.554ZM5.004,24L7.004,24L5.004,24ZM12.274,11.274C13.055,10.493 13.055,9.226 12.274,8.446C11.493,7.665 10.227,7.665 9.446,8.446L12.274,11.274ZM32.067,16.935C32.996,17.864 33.734,18.967 34.237,20.181L37.932,18.649C37.228,16.949 36.195,15.405 34.893,14.105L32.067,16.935ZM34.237,20.181C34.74,21.395 34.999,22.696 34.999,24.01L38.999,24.01C38.999,22.17 38.637,20.348 37.932,18.649L34.237,20.181ZM34.999,24.01C34.999,25.324 34.74,26.625 34.237,27.839L37.932,29.371C38.637,27.672 38.999,25.85 38.999,24.01L34.999,24.01ZM34.237,27.839C33.734,29.053 32.996,30.156 32.067,31.085L34.893,33.915C36.195,32.615 37.228,31.071 37.932,29.371L34.237,27.839ZM17.933,31.065C17.004,30.136 16.266,29.033 15.763,27.819L12.068,29.351C12.772,31.051 13.805,32.595 15.107,33.895L17.933,31.065ZM15.763,27.819C15.26,26.605 15.001,25.304 15.001,23.99L11.001,23.99C11.001,25.83 11.363,27.652 12.068,29.351L15.763,27.819ZM15.001,23.99C15.001,22.676 15.26,21.375 15.763,20.161L12.068,18.629C11.363,20.328 11.001,22.15 11.001,23.99L15.001,23.99ZM15.763,20.161C16.266,18.947 17.004,17.844 17.933,16.915L15.107,14.085C13.805,15.385 12.772,16.929 12.068,18.629L15.763,20.161ZM37.725,11.274C41.1,14.649 42.996,19.227 42.996,24L46.996,24C46.996,18.166 44.679,12.572 40.554,8.446L37.725,11.274ZM42.996,24C42.996,28.773 41.1,33.35 37.725,36.726L40.554,39.554C44.679,35.428 46.996,29.834 46.996,24L42.996,24ZM12.274,36.726C8.9,33.35 7.004,28.773 7.004,24L3.004,24C3.004,29.834 5.321,35.428 9.446,39.554L12.274,36.726ZM7.004,24C7.004,19.227 8.9,14.649 12.274,11.274L9.446,8.446C5.321,12.572 3.004,18.166 3.004,24L7.004,24Z" fill="#000000"/>
</svg>
