<svg width="50" height="48" viewBox="0 0 50 48" fill="none" xmlns="http://www.w3.org/2000/svg" xmlns:xlink="http://www.w3.org/1999/xlink">
<path d="M37,22C37,29.732 30.732,36 23,36L23,40C32.941,40 41,31.941 41,22L37,22ZM23,36C15.268,36 9,29.732 9,22L5,22C5,31.941 13.059,40 23,40L23,36ZM9,22C9,14.268 15.268,8 23,8L23,4C13.059,4 5,12.059 5,22L9,22ZM23,8C30.732,8 37,14.268 37,22L41,22C41,12.059 32.941,4 23,4L23,8Z" fill="#000000"/>
<path d="M41.586,43.414C42.367,44.195 43.633,44.195 44.414,43.414C45.195,42.633 45.195,41.367 44.414,40.586L41.586,43.414ZM35.714,31.886C34.933,31.105 33.667,31.105 32.886,31.886C32.105,32.667 32.105,33.933 32.886,34.714L35.714,31.886ZM44.414,40.586L35.714,31.886L32.886,34.714L41.586,43.414L44.414,40.586Z" fill="#000000"/>
</svg>
